<?xml version="1.0" encoding="utf-8"?>
<!-- Generator: Adobe Illustrator 15.1.0, SVG Export Plug-In . SVG Version: 6.00 Build 0)  -->
<!DOCTYPE svg PUBLIC "-//W3C//DTD SVG 1.1//EN" "http://www.w3.org/Graphics/SVG/1.1/DTD/svg11.dtd">
<svg version="1.1" id="Layer_1" xmlns="http://www.w3.org/2000/svg" xmlns:xlink="http://www.w3.org/1999/xlink" x="0px" y="0px"
	 width="1200px" height="200px" viewBox="0 0 1200 200" enable-background="new 0 0 1200 200" xml:space="preserve">
<rect x="475.759" y="130.213" fill="#F79973" stroke="#F79973" stroke-width="3" stroke-miterlimit="10" width="62.778" height="60.987"/>
<rect x="597.02" y="130.212" fill="#F79973" stroke="#F79973" stroke-width="3" stroke-miterlimit="10" width="62.779" height="60.987"/>
<rect x="757.207" y="123.062" fill="#50A296" width="34.389" height="34.389"/>
<rect x="798.603" y="163.708" fill="#50A296" width="34.391" height="34.39"/>
<rect x="715.152" y="163.708" fill="#203939" width="34.389" height="34.39"/>
<rect x="674.654" y="163.708" fill="#50A296" width="34.389" height="34.39"/>
<rect x="630.512" y="123.062" fill="#203939" width="34.391" height="34.39"/>
<rect x="590.014" y="123.062" fill="#50A296" width="34.389" height="34.389"/>
<rect x="590.014" y="163.708" fill="#508288" width="34.389" height="34.39"/>
<rect x="509.567" y="123.062" fill="#50A296" width="34.389" height="34.389"/>
<rect x="550.065" y="163.708" fill="#203939" width="34.388" height="34.39"/>
<rect x="509.566" y="163.708" fill="#50A296" width="34.389" height="34.39"/>
<rect x="469.064" y="123.063" fill="#50A296" width="34.39" height="34.389"/>
<rect x="427.565" y="123.062" fill="#203939" width="34.389" height="34.39"/>
<rect x="469.064" y="163.71" fill="#203939" width="34.389" height="34.389"/>
<rect x="386.616" y="163.71" fill="#50A296" width="34.389" height="34.389"/>
<rect x="346.118" y="163.708" fill="#203939" width="34.389" height="34.389"/>
<rect x="265.479" y="163.608" fill="#508288" width="34.39" height="34.39"/>
<rect x="305.429" y="122.853" fill="#50A296" width="34.389" height="34.389"/>
<rect x="840.666" y="122.712" fill="#203939" width="34.389" height="34.39"/>
<rect x="882.104" y="163.71" fill="#508288" width="34.391" height="34.389"/>
<rect x="224.478" y="163.71" fill="#203939" width="34.389" height="34.389"/>
<rect x="549.602" y="81.708" fill="#50A296" width="34.389" height="34.389"/>
<rect x="510.104" y="81.706" fill="#203939" width="34.389" height="34.389"/>
<rect x="590.083" y="40.094" fill="#508288" width="34.39" height="34.39"/>
<rect x="550.082" y="40.095" fill="#203939" width="34.389" height="34.389"/>
<rect x="428.475" y="40.094" fill="#50A296" width="34.391" height="34.39"/>
<rect x="509.974" y="40.096" fill="#508288" width="34.391" height="34.389"/>
</svg>
