<?xml version="1.0" encoding="utf-8"?>
<!-- Generator: Adobe Illustrator 15.1.0, SVG Export Plug-In . SVG Version: 6.00 Build 0)  -->
<!DOCTYPE svg PUBLIC "-//W3C//DTD SVG 1.1//EN" "http://www.w3.org/Graphics/SVG/1.1/DTD/svg11.dtd">
<svg version="1.1" id="Layer_1" xmlns="http://www.w3.org/2000/svg" xmlns:xlink="http://www.w3.org/1999/xlink" x="0px" y="0px"
	 width="1200px" height="200px" viewBox="0 0 1200 200" enable-background="new 0 0 1200 200" xml:space="preserve">
<rect x="809.239" y="89.892" fill="#F79973" stroke="#F79973" stroke-width="3" stroke-miterlimit="10" width="62.776" height="60.986"/>
<rect x="325.184" y="89" fill="#F79973" stroke="#F79973" stroke-width="3" stroke-miterlimit="10" width="62.778" height="60.986"/>
<rect x="566.056" y="89.88" fill="#F79973" stroke="#F79973" stroke-width="3" stroke-miterlimit="10" width="62.779" height="60.987"/>
<rect x="687.659" y="89.894" fill="#F79973" stroke="#F79973" stroke-width="3" stroke-miterlimit="10" width="62.776" height="60.987"/>
<rect x="446.02" y="89.894" fill="#F79973" stroke="#F79973" stroke-width="3" stroke-miterlimit="10" width="62.778" height="60.987"/>
<rect x="727.936" y="6.899" fill="#F79973" stroke="#F79973" stroke-width="3" stroke-miterlimit="10" width="62.778" height="60.987"/>
<rect x="606.521" y="6.899" fill="#F79973" stroke="#F79973" stroke-width="3" stroke-miterlimit="10" width="62.778" height="60.987"/>
<rect x="365.128" y="7.151" fill="#F79973" stroke="#F79973" stroke-width="3" stroke-miterlimit="10" width="62.778" height="60.987"/>
<rect x="486.259" y="6.899" fill="#F79973" stroke="#F79973" stroke-width="3" stroke-miterlimit="10" width="62.779" height="60.987"/>
<rect x="359.571" y="40.648" fill="#50A296" width="34.389" height="34.389"/>
<rect x="319.072" y="0.001" fill="#50A296" width="34.389" height="34.389"/>
<rect x="359.571" y="0.001" fill="#50A296" width="34.389" height="34.389"/>
<rect x="399.519" y="40.647" fill="#508288" width="34.391" height="34.389"/>
<rect x="440.018" y="40.648" fill="#50A296" width="34.39" height="34.389"/>
<rect x="399.52" y="0.001" fill="#203939" width="34.39" height="34.389"/>
<rect x="440.019" y="0.001" fill="#50A296" width="34.39" height="34.389"/>
<rect x="479.154" y="40.647" fill="#203939" width="34.39" height="34.389"/>
<rect x="519.653" y="40.648" fill="#50A296" width="34.389" height="34.389"/>
<rect x="480.156" y="0.001" fill="#50A296" width="34.389" height="34.389"/>
<rect x="519.654" y="0.001" fill="#508288" width="34.389" height="34.389"/>
<rect x="559.602" y="40.647" fill="#50A296" width="34.391" height="34.389"/>
<rect x="601.102" y="40.648" fill="#50A296" width="34.39" height="34.389"/>
<rect x="559.603" y="0.001" fill="#203939" width="34.39" height="34.389"/>
<rect x="601.103" y="0.001" fill="#50A296" width="34.39" height="34.389"/>
<rect x="480.153" y="81.993" fill="#508288" width="34.389" height="34.39"/>
<rect x="519.65" y="81.993" fill="#50A296" width="34.39" height="34.39"/>
<rect x="640.603" y="40.646" fill="#50A296" width="34.391" height="34.389"/>
<rect x="681.102" y="40.647" fill="#203939" width="34.39" height="34.389"/>
<rect x="640.604" fill="#203939" width="34.39" height="34.389"/>
<rect x="681.103" fill="#50A296" width="34.39" height="34.389"/>
<rect x="559.878" y="81.994" fill="#203939" width="34.389" height="34.389"/>
<rect x="600.827" y="81.992" fill="#508288" width="34.39" height="34.389"/>
<rect x="640.604" y="82.194" fill="#50A296" width="34.39" height="34.389"/>
<rect x="761.55" y="81.994" fill="#50A296" width="34.389" height="34.389"/>
<rect x="721.05" fill="#50A296" width="34.389" height="34.389"/>
<rect x="761.548" y="0.001" fill="#203939" width="34.389" height="34.389"/>
<rect x="721.05" y="40.645" fill="#50A296" width="34.39" height="34.389"/>
<rect x="843.187" fill="#508288" width="34.391" height="34.389"/>
<rect x="802.236" y="40.857" fill="#50A296" width="34.39" height="34.389"/>
<rect x="519.79" y="124.193" fill="#203939" width="34.389" height="34.39"/>
<rect x="399.566" y="81.994" fill="#203939" width="34.39" height="34.389"/>
<rect x="319.072" y="81.994" fill="#508288" width="34.389" height="34.389"/>
<rect x="278.57" y="39.997" fill="#203939" width="34.389" height="34.389"/>
<rect x="721.05" y="124.193" fill="#508288" width="34.389" height="34.39"/>
<rect x="640.604" y="123.393" fill="#203939" width="34.39" height="34.39"/>
<rect x="681.103" y="82.194" fill="#50A296" width="34.39" height="34.389"/>
<rect x="843.188" y="81.992" fill="#203939" width="34.39" height="34.389"/>
<rect x="359.571" y="123.992" fill="#50A296" width="34.389" height="34.389"/>
<rect x="440.018" y="123.393" fill="#508288" width="34.39" height="34.39"/>
<rect x="440.018" y="81.992" fill="#50A296" width="34.39" height="34.389"/>
<rect x="721.05" y="81.992" fill="#203939" width="34.389" height="34.389"/>
<rect x="278.57" y="81.992" fill="#50A296" width="34.389" height="34.389"/>
<rect x="237.175" y="123.992" fill="#50A296" width="34.389" height="34.389"/>
<rect x="802.236" y="124.193" fill="#508288" width="34.39" height="34.389"/>
<rect x="236.571" fill="#508288" width="34.39" height="34.389"/>
<rect x="884.189" fill="#203939" width="34.39" height="34.389"/>
<rect x="560.637" y="164.609" fill="#50A296" width="34.389" height="34.39"/>
<rect x="560.638" y="123.992" fill="#50A296" width="34.39" height="34.389"/>
<rect x="600.775" y="164.609" fill="#203939" width="34.39" height="34.39"/>
<rect x="600.775" y="123.992" fill="#50A296" width="34.389" height="34.389"/>
<rect x="398.781" y="164.514" fill="#203939" width="34.389" height="34.389"/>
<rect x="399.783" y="123.865" fill="#50A296" width="34.389" height="34.389"/>
<rect x="479.412" y="164.609" fill="#50A296" width="34.389" height="34.39"/>
<rect x="681.009" y="164.609" fill="#508288" width="34.389" height="34.39"/>
<rect x="319.072" y="123.992" fill="#508288" width="34.389" height="34.39"/>
<rect x="359.571" y="164.609" fill="#50A296" width="34.389" height="34.39"/>
<rect x="884.189" y="124.391" fill="#50A296" width="34.39" height="34.389"/>
<rect x="802.236" y="164.609" fill="#50A296" width="34.39" height="34.39"/>
<rect x="278.57" y="164.609" fill="#203939" width="34.389" height="34.39"/>
<rect x="884.443" y="81.781" fill="#50A296" width="34.389" height="34.388"/>
<rect x="924.581" y="81.779" fill="#203939" width="34.39" height="34.39"/>
<rect x="924.582" y="40.132" fill="#50A296" width="34.389" height="34.389"/>
<rect x="196.08" y="40.772" fill="#203939" width="34.39" height="34.39"/>
<rect x="196.081" y="0.126" fill="#50A296" width="34.389" height="34.389"/>
<rect x="155.574" y="0.125" fill="#508288" width="34.389" height="34.39"/>
<rect x="113.676" y="81.805" fill="#50A296" width="34.389" height="34.388"/>
<rect x="113.675" y="40.772" fill="#203939" width="34.39" height="34.39"/>
<rect x="72.573" y="40.998" fill="#508288" width="34.389" height="34.39"/>
<rect x="967.648" y="124.391" fill="#50A296" width="34.389" height="34.389"/>
<rect x="1090.663" y="40.451" fill="#203939" width="34.39" height="34.39"/>
<rect x="1049.561" y="40.677" fill="#508288" width="34.39" height="34.39"/>
<rect x="1008.044" fill="#508288" width="34.389" height="34.389"/>
<rect x="967.65" fill="#50A296" width="34.39" height="34.389"/>
<rect x="1008.04" y="81.778" fill="#203939" width="34.39" height="34.39"/>
<rect x="1008.04" y="81.778" fill="#203939" width="34.39" height="34.39"/>
<rect x="843.187" y="124.389" fill="#50A296" width="34.39" height="34.389"/>
<rect x="761.548" y="39.481" fill="#508288" width="34.389" height="34.39"/>
<rect x="721.05" y="164.514" fill="#50A296" width="34.389" height="34.389"/>
<rect x="153.337" y="81.305" fill="#50A296" width="34.389" height="34.388"/>
<rect x="236.795" y="81.304" fill="#50A296" width="34.389" height="34.389"/>
<rect x="761.547" y="123.864" fill="#203939" width="34.39" height="34.39"/>
</svg>
