<?xml version="1.0" encoding="utf-8"?>
<!-- Generator: Adobe Illustrator 15.1.0, SVG Export Plug-In . SVG Version: 6.00 Build 0)  -->
<!DOCTYPE svg PUBLIC "-//W3C//DTD SVG 1.1//EN" "http://www.w3.org/Graphics/SVG/1.1/DTD/svg11.dtd">
<svg version="1.1" id="Layer_1" xmlns="http://www.w3.org/2000/svg" xmlns:xlink="http://www.w3.org/1999/xlink" x="0px" y="0px"
	 width="424.043px" height="317px" viewBox="0 0 424.043 317" enable-background="new 0 0 424.043 317" xml:space="preserve">
<g>
	<path d="M355.043,20c5.91,3.053,13.453-5.635,19-3c-2.67,4.664-9.807,4.86-15,7c2.344,4.814,10.197,3.466,17,8
		c-1.229,4.05-7.871,1.145-11,1c-4.779,1.553-1.652,11.013-7,12c3.363-10.973-2.605-24.365-16-18c2.988-4.661-2.561-4.07-5-6
		C329.94-8.245,373.706,1.066,355.043,20z M341.043,19c11.053,2.772,19.818-7.836,11-13c-0.867,2.19-6.477,4.779-8,3
		c0.326-5.218,5.113,0.241,5-5C342.096,4.718,340.987,11.276,341.043,19z"/>
	<path d="M342.043,12c2.051-0.124,7.658-0.999,10,0c-1.732,2.933-4.688,4.644-9,5C342.206,15.839,341.725,14.319,342.043,12z"/>
	<path d="M151.044,14c4.067,0.264-0.736,4.504,3,6c3.541,0.541,2.459-3.541,6-3C159.579,28.418,146.652,22.29,151.044,14z"/>
	<path d="M215.043,51c-0.219,3.22,1.77,4.231,1,8c6.131-1.041,9.414-8.549,16-6c-2.383,5.826-12.506,4.479-13,9
		c-0.506,4.641,10,4.27,8,10c-5.186,0.519-6.198-3.134-10-4c-6.378,1.954-3.657,13.008-13,12c0.466-7.534,4.903-11.097,7-17
		c-4.404,1.948-9.383,8.592-15,6c-1.7-4.388,2.313-1.882,4-3c3.773-2.499,5.131-7.627,10-9c-4.845-5.5-17.508,2.387-23-3
		c-14.032-24.28,36.792-35.524,39-16C226.79,44.593,220.758,48.582,215.043,51z M221.043,37c-3.24-14.288-38.929-3.235-30,15
		C201.772,54.093,223.624,48.37,221.043,37z"/>
	<path fill="#FFFFFF" d="M191.044,52c-8.93-18.235,26.759-29.288,30-15C223.624,48.37,201.772,54.093,191.044,52z M206.044,41
		c0.111-1.889,3.306-0.694,3-3c-1.479-0.521-2.521-1.479-4-2C203.681,37.273,203.5,40.898,206.044,41z M204.044,42
		c-0.854,3.188,0.871,3.796,2,5c4.91-1.757,10.268-3.065,11-9c-1.377,0.043-2.194-0.471-3-1
		C212.661,41.457,208.854,43.576,204.044,42z M196.044,44c2.615,0.282,4.301-0.365,4-3c-1.376,0.043-2.196-0.471-3-1
		C196.729,41.352,195.621,41.91,196.044,44z"/>
	<path d="M205.044,36c1.479,0.521,2.521,1.479,4,2c0.306,2.306-2.889,1.111-3,3C203.5,40.898,203.681,37.273,205.044,36z"/>
	<path d="M214.043,37c0.806,0.529,1.623,1.043,3,1c-0.731,5.935-6.089,7.243-11,9c-1.129-1.204-2.854-1.812-2-5
		C208.854,43.576,212.661,41.457,214.043,37z"/>
	<path d="M319.043,38c2.615-0.282,4.303,0.365,4,3c-2.486,0.109-3.096,1.874-5,0C318.573,40.196,319.086,39.376,319.043,38z"/>
	<path d="M326.043,38c4.422,0.388,3.047,5.487-2,4C324.565,40.521,325.524,39.479,326.043,38z"/>
	<path d="M197.044,40c0.804,0.529,1.624,1.043,3,1c0.301,2.635-1.385,3.282-4,3C195.621,41.91,196.729,41.352,197.044,40z"/>
	<path d="M314.043,51c-0.438-3.438,0.396-5.605,1-8c3.611,3.277,5.805,2.029,9,2C324.002,50.292,319.208,50.83,314.043,51z"/>
	<path fill="#FFFFFF" d="M63.044,44c3.124-0.149,4.348,1.528,8,3c-2.287,2.379-6.085,3.248-11,3
		C61.001,47.957,62.087,46.043,63.044,44z"/>
	<path fill="#FFFFFF" d="M133.044,47c-2.801,8.533-9.712,12.954-21,13c-1.172,0.162-0.843,1.823-1,3c-4.521-1.7,0.232-6.494,1-9
		c1.486,0.847,1.447,3.22,2,5c4.246,0.913,5.034-1.632,6-4c-0.31-1.357-2.504-0.83-4-1c0.898-1.768,2.414-2.919,3-5
		c1.172,0.162,0.843,1.823,1,3C123.562,49.318,124.033,45.869,133.044,47z"/>
	<path d="M170.044,97c-1.11,8.223-9.821,8.846-19,9c2.585,4.705,8.729,2.963,13,4c-1.985,5.713-11.562,4.139-15,1
		c1.204,3.796,2.128,7.872,3,12c-5.612,0.945-6.107-3.226-7-7c-7.316,0.017-6.145,8.521-12,10c-3.213-6.901,3.445-12.539,9-14
		c-3.136-4.759-9.341-5.4-15-3c0.146-9.119,10.729-4.49,16-3c-0.889-4.445-5.818-4.848-7-9
		C138.011,81.212,165.728,88.765,170.044,97z M144.044,96c-1.995,6.971,17.992,8.427,19,0C157.649,88.948,145.999,93.108,144.044,96
		z"/>
	<path fill="#FFFFFF" d="M163.044,96c-1.008,8.427-20.995,6.971-19,0C145.999,93.108,157.649,88.948,163.044,96z M152.044,97
		c1.912-0.421,4.304-0.362,4-3c-1.891,0.224-2.207-1.127-4-1C152.044,94.333,152.044,95.667,152.044,97z"/>
	<path d="M152.044,93c1.793-0.127,2.109,1.224,4,1c0.304,2.638-2.088,2.579-4,3C152.044,95.667,152.044,94.333,152.044,93z"/>
	<path fill="#FFFFFF" d="M350.043,140c0,1.667,0,3.333,0,5c-3.277,0.056-3.822,2.844-8,2c-0.1-3.101,1.223-4.777,2-7
		C346.043,140,348.043,140,350.043,140z"/>
	<path fill="#FFFFFF" d="M75.044,213c-8.601-9.238-28.163,1.947-30-14c-2.949-25.596,52.416-50.125,73-32
		c0.679,3.654,1.395,7.271,1,12c-4.202,1.822-13.708,1.318-18,0c-1.632,8.965,13.008,1.659,15,7c-0.851,0.184-0.943-0.391-1-1
		C110.498,199.215,90.938,206.825,75.044,213z M89.044,172c1.891,0.225,2.207-1.127,4-1c0.144-3.145-2.564-3.436-5-4
		C87.725,169.318,88.205,170.839,89.044,172z M63.044,184c3.141,0.475,4.086-1.247,5-3c-2.928,0.261-3.072-2.261-6-2
		C61.725,181.318,62.205,182.839,63.044,184z M79.044,200c11.025-0.309,18.865-3.802,21-13
		C92.741,172.545,66.895,184.823,79.044,200z"/>
	<path d="M88.044,167c2.436,0.564,5.144,0.855,5,4c-1.793-0.127-2.109,1.225-4,1C88.205,170.839,87.725,169.318,88.044,167z"/>
	<path d="M62.044,179c2.928-0.261,3.072,2.261,6,2c-0.914,1.753-1.859,3.475-5,3C62.205,182.839,61.725,181.318,62.044,179z"/>
	<path d="M100.044,187c-2.135,9.198-9.975,12.691-21,13C66.895,184.823,92.741,172.545,100.044,187z"/>
	<path d="M353.043,199c-0.566,8.037,8.887,9.792,16,7C365.641,216.053,344.209,209.562,353.043,199z"/>
	<path d="M378.043,212c2.283,4.716,1.623,8.986,10,9C382.141,228.053,370.637,218.643,378.043,212z"/>
	<path d="M351.043,215c3.922-0.921,0.727,5.273,3,6c3.396,0.271,8.107-0.773,10,1c-2.047,3.441-9.877,3.62-14,2
		c0.162-1.163-0.221-1.779-1-2C347.897,217.854,351.147,218.104,351.043,215z"/>
	<path fill="#FFFFFF" d="M349.043,4c0.113,5.241-4.674-0.218-5,5c1.523,1.779,7.133-0.81,8-3c8.818,5.164,0.053,15.772-11,13
		C340.987,11.276,342.096,4.718,349.043,4z M343.043,17c4.312-0.356,7.268-2.067,9-5c-2.342-0.999-7.949-0.124-10,0
		C341.725,14.319,342.206,15.839,343.043,17z"/>
	<path fill="#FFFFFF" d="M146.044,23c-3.105-15.43,19.599-14.009,25-7C168.554,23.385,153.734,27.274,146.044,23z M160.044,17
		c-3.541-0.541-2.459,3.541-6,3c-3.736-1.496,1.067-5.736-3-6C146.652,22.29,159.579,28.418,160.044,17z"/>
	<path fill="#FFFFFF" d="M340.043,52c-9.281,7.673-31.6,4.129-30-8C311.62,32.053,342.803,33.509,340.043,52z M324.043,45
		c-3.195,0.029-5.389,1.277-9-2c-0.604,2.395-1.438,4.562-1,8C319.208,50.83,324.002,50.292,324.043,45z M318.043,41
		c1.904,1.874,2.514,0.109,5,0c0.303-2.635-1.385-3.282-4-3C319.086,39.376,318.573,40.196,318.043,41z M324.043,42
		c5.047,1.487,6.422-3.612,2-4C325.524,39.479,324.565,40.521,324.043,42z"/>
	<path fill="#FFFFFF" d="M76.044,41c-3.61,0.159-7.792,4.595-9-1c5.087,2.104,6.512-0.209,9-3c3.26-0.26,4.813,1.187,5,4
		c-1.521,2.146-4.268,3.065-6,5C72.325,45.086,77.708,44.141,76.044,41z"/>
	<path fill="#FFFFFF" d="M1.044,0c140.998,0,282.003,0,423,0c0,105.667,0,211.333,0,317c-141.334,0-282.665,0-424,0
		c0-104.667,0-209.333,0-314C-0.042,1.581-0.121,0.168,1.044,0z M337.043,21c2.439,1.93,7.988,1.339,5,6
		c13.395-6.365,19.363,7.027,16,18c5.348-0.987,2.221-10.447,7-12c3.129,0.145,9.771,3.05,11-1c-6.803-4.534-14.656-3.186-17-8
		c5.193-2.14,12.33-2.336,15-7c-5.547-2.635-13.09,6.053-19,3C373.706,1.066,329.94-8.245,337.043,21z M174.044,14
		c-1.75-7.826-27.814-10.126-31,2c-1.785,6.794,2.133,6.533,3,16c2.177,1.823,7.038,0.962,8,4c-3.172,3.844-10.892,8.421-9,14
		c3.931-4.069,7.37-8.63,12-12c1.75,1.917,1.176,6.157,5,6c2.396-3.125-0.94-7.203-2-10c4.331-3.002,11.11-3.557,13-9
		c-3.442-2.371-9.252,5.771-13,3C165.363,24.292,175.94,22.48,174.044,14z M226.043,38c-2.207-19.524-53.031-8.28-39,16
		c5.492,5.387,18.155-2.5,23,3c-4.869,1.373-6.227,6.501-10,9c-1.687,1.118-5.7-1.388-4,3c5.617,2.592,10.596-4.052,15-6
		c-2.097,5.903-6.534,9.466-7,17c9.342,1.008,6.621-10.046,13-12c3.802,0.866,4.814,4.519,10,4c2-5.73-8.506-5.359-8-10
		c0.494-4.521,10.617-3.174,13-9c-6.586-2.549-9.869,4.959-16,6c0.77-3.769-1.219-4.78-1-8C220.758,48.582,226.79,44.593,226.043,38
		z M86.044,41c-0.655-14.61-36.203-7.848-32,11c2.93,6.179,13.823-0.656,17,4c-0.779,0.221-1.163,0.837-1,2
		c-3.732-1.648-12.929-1.233-15,2c1.979,5.102,11.393-0.625,14,2c-0.08,4.587-2.54,6.793-2,12c6.254,1.587,4.458-4.876,8-6
		c2.83,1.504,4.623,4.044,9,4c1.828-4.508-6.735-6.345-8-11c2.156-6.511,13.682-3.651,15-11c-4.062-2.085-11.915,5.18-16,3
		C78.546,47.978,86.348,47.772,86.044,41z M345.043,55c9.08-18.065-40.353-36.234-39-6c1.705,2.295,3.705,4.295,6,6
		c-2.039,0.294-1.961,2.706-4,3c-4.258-2.742-7.463-6.537-13-8c0.967,7.035,7.485,8.515,11,13c-1.938,10.061-15.727,8.273-19,17
		c7.771-1.896,14.799-4.535,20-9c0.557,2.777-0.096,6.764,4,6c2.295-2.039,0.363-8.305,1-12c4.492,0.491,7.494-0.507,11-1
		c0.299-1.966-1.35-1.983-2-3C332.028,60.871,341.981,61.095,345.043,55z M103.044,66c1.758,0.575,5.875-1.208,6,1
		c-2.51,0.824-8.611-1.944-8,2c-0.445,3.778,5.225,1.442,6,4c-2.518,1.849-7.807,6.148-5,10c2.562-3.771,6.05-6.617,10-9
		c0.431,3.236-1.316,8.649,2,9c2.069-1.597,1.231-6.103,3-8c5.156-1.844,13.335-0.665,14-7c-5.521-0.521-9.427,0.573-14,1
		c1.386-0.614,0.15-3.85,2-4c11.055,2.181,20.084-4.859,23-14C133.02,33.536,89.296,44.164,103.044,66z M309.043,304
		c6.559-3.337,8.912-11.479,13-17c4.395-5.932,8.76-11.428,13-17c3.102,7.631,9.695,26.424,19,18c-9.535-3.221-19.643-20.141-13-34
		c7.096,5.238,12.309,12.357,20,17c-2.076-12.404-19.25-14.548-18-27c21.85,6.846,59.416,14.602,60-13
		c0.771-36.42-34.076-52.771-64-39c-1.744,0.803-11.35,8.104-12,8c-2.812-0.449-7.877-12.646-8-18c-0.051-2.273,2.338,0.346,3-3
		c0.943-4.762-3.178-1.451-1-5c2.355-3.833,8.188-6.006,14-7c23.779-4.066,60.748,1.092,75-10c0.225-0.776,0.027-1.973,1-2
		c1.762-14.033-6.531-25.386-13-36c-11.711-19.215-17.09-34.62-48-33c-31.141,1.632-67.782,8-91,18c-1.258,3.076-2.797,5.87-4,9
		c-1.391-10.797-10.445-18.646-24-17c-15.986,1.942-29.246,11.209-49,22c-13.488,7.368-42.808,15.708-48,24
		c-9.244,14.765,13.724,33.73-10,36c-3.262-48.089-75.981-17.188-84,7c-4.705,14.189,3.115,24.859,13,32
		c10.231-0.29,13.433,7.37,24,4c0.281,3.387,1.591,5.742,1,10c-14.557-9.398-26.585,5.206-37,5c-7.216-0.143-9.29-7.543-18-6
		c12.188,20.709,36.609-4.387,54,5c-6.834,15.523-17.045,32.922-17,52c1.667,0,3.333,0,5,0c5.039-14.294,8.813-29.854,16-42
		c2.334,9.867,2.388,26.671,12,26c-4.921-7.084-2.027-30.637-7-41c14.979-4.387,33.357-10.6,35-25c-5.538-2.568-9.835,13.002-19,16
		c-8.088,2.646-14.573,0.495-15-4c15.343-7.323,28.13-17.203,37-31c-1.041,22.374,13.821,28.846,22,42
		c25.208,0.863,38.967-6.246,61-13c16.992-5.209,31.682-8.411,42-16c24.449-17.982,1.351-53.198,7-84
		c8.147,25.594,1.94,70.075,30,73c12.045,1.256,19.688-4.113,30-7c1.062,9.938,5.586,16.414,10,23c-5.959,10.482,1.398,23.557,8,28
		c-8.562,3.309,5.711,6.846,3,14c-10.555,4.16-25.199,14.734-23,25c6.189-3.152,11.758-15.568,22-18
		C330.438,272.745,311.768,284.698,309.043,304z M136.044,97c1.182,4.152,6.111,4.555,7,9c-5.271-1.49-15.854-6.119-16,3
		c5.659-2.4,11.864-1.759,15,3c-5.555,1.461-12.213,7.099-9,14c5.855-1.479,4.684-9.983,12-10c0.893,3.774,1.388,7.945,7,7
		c-0.872-4.128-1.796-8.204-3-12c3.438,3.139,13.015,4.713,15-1c-4.271-1.037-10.415,0.705-13-4c9.179-0.154,17.89-0.777,19-9
		C165.728,88.765,138.011,81.212,136.044,97z"/>
	<path d="M336.043,253c-10.242,2.432-15.811,14.848-22,18c-2.199-10.266,12.445-20.84,23-25c2.711-7.154-11.562-10.691-3-14
		c-6.602-4.443-13.959-17.518-8-28c-4.414-6.586-8.938-13.062-10-23c-10.312,2.887-17.955,8.256-30,7
		c-28.06-2.925-21.853-47.406-30-73c-5.649,30.802,17.449,66.018-7,84c-10.317,7.589-25.008,10.791-42,16
		c-22.033,6.754-35.792,13.863-61,13c-8.179-13.154-23.041-19.626-22-42c-8.87,13.797-21.657,23.677-37,31
		c0.427,4.495,6.912,6.646,15,4c9.165-2.998,13.462-18.568,19-16c-1.643,14.4-20.021,20.613-35,25c4.973,10.363,2.079,33.916,7,41
		c-9.612,0.671-9.666-16.133-12-26c-7.187,12.146-10.961,27.706-16,42c-1.667,0-3.333,0-5,0c-0.045-19.078,10.166-36.477,17-52
		c-17.391-9.387-41.812,15.709-54-5c8.71-1.543,10.784,5.857,18,6c10.415,0.206,22.443-14.398,37-5c0.591-4.258-0.719-6.613-1-10
		c-10.567,3.37-13.769-4.29-24-4c-9.885-7.141-17.705-17.811-13-32c8.019-24.188,80.738-55.089,84-7c23.724-2.27,0.756-21.235,10-36
		c5.192-8.292,34.512-16.632,48-24c19.754-10.791,33.013-20.058,49-22c13.555-1.646,22.609,6.203,24,17c1.203-3.13,2.742-5.924,4-9
		c23.218-10,59.859-16.368,91-18c30.91-1.62,36.289,13.785,48,33c6.469,10.614,14.762,21.967,13,36c-0.973,0.027-0.775,1.224-1,2
		c-14.252,11.092-51.221,5.934-75,10c-5.812,0.994-11.645,3.167-14,7c-2.178,3.549,1.943,0.238,1,5c-0.662,3.346-3.051,0.727-3,3
		c0.123,5.354,5.188,17.551,8,18c0.65,0.104,10.256-7.197,12-8c29.924-13.771,64.771,2.58,64,39c-0.584,27.602-38.15,19.846-60,13
		c-1.25,12.452,15.924,14.596,18,27c-7.691-4.643-12.904-11.762-20-17c-6.643,13.859,3.465,30.779,13,34
		c-9.305,8.424-15.898-10.369-19-18c-4.24,5.572-8.605,11.068-13,17c-4.088,5.521-6.441,13.663-13,17
		C311.768,284.698,330.438,272.745,336.043,253z M115.044,185c0.057,0.609,0.149,1.184,1,1c-1.992-5.341-16.632,1.965-15-7
		c4.292,1.318,13.798,1.822,18,0c0.395-4.729-0.321-8.346-1-12c-20.584-18.125-75.949,6.404-73,32c1.837,15.947,21.399,4.762,30,14
		C90.938,206.825,110.498,199.215,115.044,185z M395.043,118c-4.41-6.897-14.361-24.004-22-27c-5.994-2.351-18.658-1.506-26-1
		c-29.17,2.011-69.676,6.436-88,21c7.146,22.017,2.774,65.791,22,72c8.033,2.596,26.596-0.576,34-6c4.254-3.115,5.029-8.562,10-11
		c24.432-11.972,62.166,3.566,83-12C408.247,139.607,401.538,128.156,395.043,118z M209.044,212c15.703-4.85,41.82-11.337,47-26
		c6.451-18.26-5.881-40.175-6-59c-0.03-4.923,2.785-10.19,2-15c-1.182-7.245-9.012-13.931-18-14c-17.562-0.135-35.841,14.031-52,23
		c-18.39,10.208-37.627,15.973-48,27c6.44,12.904,6.269,29.729-8,34c3.103,14.93,5.349,21.346,13,30c4.083,4.618,6.852,9.415,11,13
		C173.542,223.843,189.071,218.168,209.044,212z M398.043,238c5.617-41.759-38.441-58.418-66-35c0.57,4.43,5.271,4.729,5,10
		c-4.312-0.02-3.686-4.98-8-5c-3.02,14.402,9.666,20.723,21,24c0,1.667,0,3.333,0,5c-5.238-0.45-12.301-4.336-15-4
		C347.688,241.822,383.694,252.678,398.043,238z"/>
	<path fill="#FFFFFF" d="M335.043,233c2.699-0.336,9.762,3.55,15,4c0-1.667,0-3.333,0-5c-11.334-3.277-24.02-9.598-21-24
		c4.314,0.02,3.688,4.98,8,5c0.271-5.271-4.43-5.57-5-10c27.559-23.418,71.617-6.759,66,35
		C383.694,252.678,347.688,241.822,335.043,233z M369.043,206c-7.113,2.792-16.566,1.037-16-7
		C344.209,209.562,365.641,216.053,369.043,206z M388.043,221c-8.377-0.014-7.717-4.284-10-9
		C370.637,218.643,382.141,228.053,388.043,221z M349.043,222c0.779,0.221,1.162,0.837,1,2c4.123,1.62,11.953,1.441,14-2
		c-1.893-1.773-6.604-0.729-10-1c-2.273-0.727,0.922-6.921-3-6C351.147,218.104,347.897,217.854,349.043,222z"/>
	<path d="M160.044,28c3.748,2.771,9.558-5.371,13-3c-1.89,5.443-8.669,5.998-13,9c1.06,2.797,4.396,6.875,2,10
		c-3.824,0.157-3.25-4.083-5-6c-4.63,3.37-8.069,7.931-12,12c-1.892-5.579,5.828-10.156,9-14c-0.962-3.038-5.823-2.177-8-4
		c-0.867-9.467-4.785-9.206-3-16c3.186-12.126,29.25-9.826,31-2C175.94,22.48,165.363,24.292,160.044,28z M171.044,16
		c-5.401-7.009-28.105-8.43-25,7C153.734,27.274,168.554,23.385,171.044,16z"/>
	<path d="M75.044,53c4.085,2.18,11.938-5.085,16-3c-1.318,7.349-12.844,4.489-15,11c1.265,4.655,9.828,6.492,8,11
		c-4.377,0.044-6.17-2.496-9-4c-3.542,1.124-1.746,7.587-8,6c-0.54-5.207,1.92-7.413,2-12c-2.607-2.625-12.021,3.102-14-2
		c2.071-3.233,11.268-3.648,15-2c-0.163-1.163,0.221-1.779,1-2c-3.177-4.656-14.07,2.179-17-4c-4.203-18.848,31.345-25.61,32-11
		C86.348,47.772,78.546,47.978,75.044,53z M75.044,46c1.732-1.935,4.479-2.854,6-5c-0.187-2.813-1.74-4.26-5-4
		c-2.488,2.791-3.913,5.104-9,3c1.208,5.595,5.39,1.159,9,1C77.708,44.141,72.325,45.086,75.044,46z M60.044,50
		c4.915,0.248,8.713-0.621,11-3c-3.652-1.472-4.876-3.149-8-3C62.087,46.043,61.001,47.957,60.044,50z"/>
	<path d="M142.044,51c-2.916,9.141-11.945,16.181-23,14c-1.85,0.15-0.614,3.386-2,4c4.573-0.427,8.479-1.521,14-1
		c-0.665,6.335-8.844,5.156-14,7c-1.769,1.897-0.931,6.403-3,8c-3.316-0.351-1.569-5.764-2-9c-3.95,2.383-7.438,5.229-10,9
		c-2.807-3.852,2.482-8.151,5-10c-0.775-2.558-6.445-0.222-6-4c-0.611-3.944,5.49-1.176,8-2c-0.125-2.208-4.242-0.425-6-1
		C89.296,44.164,133.02,33.536,142.044,51z M120.044,52c-0.157-1.177,0.172-2.838-1-3c-0.586,2.081-2.102,3.232-3,5
		c1.496,0.17,3.69-0.357,4,1c-0.966,2.368-1.754,4.913-6,4c-0.553-1.78-0.514-4.153-2-5c-0.768,2.506-5.521,7.3-1,9
		c0.157-1.177-0.172-2.838,1-3c11.288-0.046,18.199-4.467,21-13C124.033,45.869,123.562,49.318,120.044,52z"/>
	<path d="M321.043,61c0.65,1.017,2.299,1.034,2,3c-3.506,0.493-6.508,1.491-11,1c-0.637,3.695,1.295,9.961-1,12
		c-4.096,0.764-3.443-3.223-4-6c-5.201,4.465-12.229,7.104-20,9c3.273-8.727,17.062-6.939,19-17c-3.515-4.485-10.033-5.965-11-13
		c5.537,1.463,8.742,5.258,13,8c2.039-0.294,1.961-2.706,4-3c-2.295-1.705-4.295-3.705-6-6c-1.353-30.234,48.08-12.065,39,6
		C341.981,61.095,332.028,60.871,321.043,61z M310.043,44c-1.6,12.129,20.719,15.673,30,8C342.803,33.509,311.62,32.053,310.043,44z
		"/>
	<rect x="158.044" y="129.748" fill="none" width="148" height="74.503"/>
	<text transform="matrix(1 0 0 1 158.0439 144.5596)" font-family="'Handwriting-Dakota'" font-size="23">Whoo! </text>
	<text transform="matrix(1 0 0 1 158.0439 172.1602)" font-family="'Handwriting-Dakota'" font-size="23">Let’s</text>
	<text transform="matrix(1 0 0 1 158.0439 199.7598)" font-family="'Handwriting-Dakota'" font-size="23">Dance!</text>
	<rect x="266.217" y="106.328" fill="none" width="148" height="74.503"/>
	<text transform="matrix(1 0 0 1 266.2173 121.1396)" font-family="'Handwriting-Dakota'" font-size="23">No, THNX.</text>
	<text transform="matrix(1 0 0 1 266.2173 148.7402)" font-family="'Handwriting-Dakota'" font-size="23">I’m good.</text>
</g>
</svg>
