<?xml version="1.0" encoding="utf-8"?>
<!-- Generator: Adobe Illustrator 15.1.0, SVG Export Plug-In . SVG Version: 6.00 Build 0)  -->
<!DOCTYPE svg PUBLIC "-//W3C//DTD SVG 1.1//EN" "http://www.w3.org/Graphics/SVG/1.1/DTD/svg11.dtd">
<svg version="1.1" id="Layer_1" xmlns="http://www.w3.org/2000/svg" xmlns:xlink="http://www.w3.org/1999/xlink" x="0px" y="0px"
	 width="307px" height="214px" viewBox="0 0 307 214" enable-background="new 0 0 307 214" xml:space="preserve">
<g>
	<path fill-rule="evenodd" clip-rule="evenodd" fill="#FFFFFF" d="M203,39.87c1.65-6.683,2.874-13.793,5-20
		c5.182,2.315,10.112-1.331,15,1c-1.686,2.981-6.796,2.537-11,3c-4.022,5.977-2.665,17.335-7,23c-3.285,0.31-8.188,2.312-11,0
		C193.242,40.779,197.044,39.247,203,39.87z M163,45.87c2.622,1.378,4.329,3.67,4,8c-1.987-1.666-1.271,0.09-4,0
		C162.363,51.582,161.017,47.837,163,45.87z M149,43.87c4.116-0.767,6.296,3.41,4,6C149.799,49.737,148.601,47.603,149,43.87z
		 M139,40.87c3.948-1.281,2.42,2.914,5,3c0.168,2.168-3.547,0.453-5,1V40.87z M128,37.87c3.14-0.473,2.642,2.691,5,3
		c-0.125,2.208-4.242,0.425-6,1C126.577,39.779,127.686,39.222,128,37.87z M98,177.869c-4.294,3.369-11.027,6.705-17,3
		c-1.178-8.055,5.446-11.793,12-9c-7.072-10.486,6.003-17.115,11-8c-1.455,1.879-6.545,0.121-8,2
		C97.734,168.803,98.357,172.846,98,177.869z M115,163.869c0.031,3.959-0.571,11.66-2,17c-4.715,0.564-7.577,1.439-12,0
		c-1.125-6.877,4.718-9.549,9-8c-0.314-5.646,0.263-10.402,2-14c5.753-0.752,9.525,0.475,11,4
		C121.103,164.096,116.597,165.348,115,163.869z M134,164.869c-1.283-1.312-1.283-3.686,0-5c3.638-0.637,3.929,2.07,4,5H134z
		 M146,156.869c-0.154-2.486,1.571-3.096,2-5c3.15-0.482,0.749,4.586,3,5C150.153,159.801,147.78,156.271,146,156.869z M155,151.869
		c-0.826-2.826,1.409-2.59,1-5c3.677-0.344,3.023,3.645,4,6C157.681,153.189,156.161,152.709,155,151.869z M168,143.869
		c-4.889,1.539-4.732-4.973-3-7C167.325,137.877,168.225,140.312,168,143.869z M185,79.87c-8.787-2.757-16.858,3.206-28-1
		c-1.724-5.61-8.18-6.486-11-11c-5.448,2.827-13.945,2.721-16-3c-3.292,0.042-4.979,1.688-9,1c-2.375,0.625,0.155,6.155-2,7
		c6.271,3.063,14.916,3.751,15,13c9.373-1.225,17.091,4.041,14,12c2.989,3.678,10.105,3.228,11,9c0.23,3.898-2.148,5.186-3,8
		c0.905,1.762,3.681,1.652,4,4c-5.246,16.088-7.936,34.73-33,31c-3.651-0.016-4.491-2.842-7-4c-2.444,1.891-4.846,3.822-8,5
		c-11.633-2.699-19.674-8.992-27-16c-0.245-13.08,3.822-25.791,12-27c11.494-1.697,24.218,18.725,31,25c-1.76,2.574-4.349,4.318-6,7
		c0.647,3.688,3.422,5.246,7,6c2.802-0.98-1.452-2.668,1-4c4.775,3.635,15.143,6.592,18-1c-1.7-0.395-10.06,1.055-8-6
		c4.085-3.133,9.739,1.236,12-4c-1.411-1.564-7.609,1.732-8-3c0.616-7.598,11.738,0.631,12-8c-3.649-3.85-8.277,3.777-12,0
		c1.597-6.402,12.255-3.744,11-13c-6.778-10.406-16.913,8.83-23-1c0.38-6.953,10.817-3.849,13-9c0.604-6.271-3.725-7.608-10-7
		c-3.021,3.312-2.867,9.8-10,9c-4.117-5.417-0.184-11.342,5-13c-0.47-5.197-4.476-6.857-9-8c-5.287,1.38-4.893,8.44-12,8
		c-0.521-1.479-1.479-2.521-2-4c0.184-5.483,5.568-5.766,9-8v-9c-5.414,1.098-11.36,1.971-13-3c1.45-2.964,6.001-6.759,10-4
		c-0.403-6.827,6.597-13.192,12-8c0.96,5.96-1.855,8.145-4,11c9.206,6.081,9.711-8.998,17-5c-0.754,2.913-2.375,4.959-4,7
		c8.014,9.575,13.57-4.504,21-5c0.413,4.746-3.775,4.891-4,9c0.354,1.313,1.761,1.573,2,3c4.692-0.641,4.731-5.936,10-6
		c2.134-0.467,1.904,1.429,2,3c2.421-1.639,4.857-2.547,8-1c0.871,6.538-2.979,8.354-6,11C172.341,79.69,186.249,69.826,185,79.87z
		 M174,51.87c0.451-6.216,4.821-8.512,11-9c-0.845-3.821-1.687-7.646-2-12c1.893-0.38,10.805-0.509,14,1
		c-2.327,1.673-5.388,2.612-9,3c1.708,4.292,3.406,8.593,3,15C188.508,53.546,178.11,55.984,174,51.87z M192,63.87
		c9.363-5.687,22.525-12.74,33-14c8.099,3.235,5.419,17.248,7,27C218.15,87.368,184.432,98.66,192,63.87z M271,76.87
		c6.162,0.104,17.75-7.442,20,1c-6.838,0.828-12.809,2.525-17,6c-0.066,5.094,2.65,12.646,2,15c-5.108,1.108-3.716-4.284-6-6
		c-5.661,5.68-5.521,22.47-11,25c-3.717-9.471,3.646-24.956,6-35c-9.735-3.031-25.655,5.837-35,0c9.287-2.957,25.543-7.654,34-5
		c0.723-3.056-1.022-3.644-1-6c-11.752,2.489-16.839-9.636-26-13c-0.841-2.492-1.309-5.357-1-9c2.395-1.272,3.682-3.651,8-3
		c3.01-16.692,36.785-26.645,43-6c2.713,1.621,5.635,3.032,7,6c-3.81,12.19-13.314,18.686-25,23
		C269.838,72.032,271.589,73.281,271,76.87z"/>
	<path fill-rule="evenodd" clip-rule="evenodd" d="M208,19.87c5.182,2.315,10.112-1.331,15,1c-1.686,2.981-6.796,2.537-11,3
		c-4.022,5.977-2.665,17.335-7,23c-3.285,0.31-8.188,2.312-11,0c-0.758-6.091,3.044-7.623,9-7
		C204.65,33.187,205.874,26.077,208,19.87z"/>
	<path fill-rule="evenodd" clip-rule="evenodd" d="M197,31.87c-2.327,1.673-5.388,2.612-9,3c1.708,4.292,3.406,8.593,3,15
		c-2.492,3.677-12.89,6.115-17,2c0.451-6.216,4.821-8.512,11-9c-0.845-3.821-1.687-7.646-2-12
		C184.893,30.49,193.805,30.36,197,31.87z"/>
	<path fill-rule="evenodd" clip-rule="evenodd" fill="#FFFFFF" d="M248,60.87c-5.434-26.662,40.597-37.382,36-10
		C282.028,62.613,260.005,69.725,248,60.87z M266,46.87c2.319,0.319,3.839-0.161,5-1c-0.441-2.892-2.108-4.559-5-5
		C264.633,42.148,264.633,45.591,266,46.87z M262,50.87c-1.662-1.671-2.618-4.049-6-4C253.421,51.139,259.101,54.549,262,50.87z
		 M274,56.87c-0.239-1.427-1.646-1.687-2-3c-4.767,1.315-5.475,2.278-10,0C258.616,62.613,274.021,63.364,274,56.87z"/>
	<path fill-rule="evenodd" clip-rule="evenodd" d="M128,37.87c3.14-0.473,2.642,2.691,5,3c-0.125,2.208-4.242,0.425-6,1
		C126.577,39.779,127.686,39.222,128,37.87z"/>
	<path fill-rule="evenodd" clip-rule="evenodd" d="M139,40.87c3.948-1.281,2.42,2.914,5,3c0.168,2.168-3.547,0.453-5,1
		C139,43.536,139,42.203,139,40.87z"/>
	<path fill-rule="evenodd" clip-rule="evenodd" d="M266,40.87c2.892,0.441,4.559,2.108,5,5c-1.161,0.839-2.681,1.319-5,1
		C264.633,45.591,264.633,42.148,266,40.87z"/>
	<path fill-rule="evenodd" clip-rule="evenodd" d="M149,43.87c4.116-0.767,6.296,3.41,4,6C149.799,49.737,148.601,47.603,149,43.87z
		"/>
	<path fill-rule="evenodd" clip-rule="evenodd" d="M163,45.87c2.622,1.378,4.329,3.67,4,8c-1.987-1.666-1.271,0.09-4,0
		C162.363,51.582,161.017,47.837,163,45.87z"/>
	<path fill-rule="evenodd" clip-rule="evenodd" d="M256,46.87c3.382-0.049,4.338,2.329,6,4C259.101,54.549,253.421,51.139,256,46.87
		z"/>
	<path fill-rule="evenodd" clip-rule="evenodd" fill="#FFFFFF" d="M242,49.87c2.023,0.818-0.633,5.272-1,7
		C236.968,55.808,240.048,50.85,242,49.87z"/>
	<path fill-rule="evenodd" clip-rule="evenodd" fill="#FFFFFF" d="M122,51.87c-0.016,3.651-2.843,4.491-4,7
		C114.477,58.031,117.452,50.8,122,51.87z"/>
	<path fill-rule="evenodd" clip-rule="evenodd" d="M262,53.87c4.525,2.278,5.233,1.315,10,0c0.354,1.313,1.761,1.573,2,3
		C274.021,63.364,258.616,62.613,262,53.87z"/>
	<path fill-rule="evenodd" clip-rule="evenodd" fill="#FFFFFF" d="M225,55.87c2.506,4.494,2.352,11.649,3,18
		C224.111,70.47,223.405,61.834,225,55.87z"/>
	<path fill-rule="evenodd" clip-rule="evenodd" fill="#FFFFFF" d="M170,67.87c0.044,3.044-2.111,3.889-3,6
		C164.695,72.459,167.074,67.356,170,67.87z"/>
	<path fill-rule="evenodd" clip-rule="evenodd" fill="#FFFFFF" d="M161,69.87c2.235,0.725,0.484,5.702-2,5
		C158.143,71.679,160.574,71.777,161,69.87z"/>
	<path fill-rule="evenodd" clip-rule="evenodd" d="M44,146.869v-11c20.756,2.09,28.943-8.391,40-16c-3.836-6.16-4.371-15.572-10-22
		c-12.228-13.961-40.39-8.881-49,5c-11.045-2.93-12.512,3.419-8,12c4.136,7.867,14.262,16.193,20,20v13
		c-9.26-2.74-17.558-6.441-28-8c3.729,9.271,18.372,7.629,27,12c-4.622,16.711-12.133,30.533-18,46h-0.174
		c-0.009,0.173-0.025,0.345-0.05,0.516c0.117,0.415,0.203,0.84,0.22,1.274c1.907-0.026,3.81-0.048,5.685-0.042
		c0.318-0.675,0.781-1.277,1.394-1.734c-0.023-0.007-0.052-0.007-0.075-0.014c4.967-11.365,8.017-24.648,15-34
		c3.878,6.789,0.353,20.982,9,23c3.617-7.727-2.283-22.969-3-33c12.289-3.045,26.712-3.953,38-8
		C72.969,140.928,59.563,149.793,44,146.869z M19,112.869c-4.158-1.473-0.688-8.209,3-8C21.862,108.398,19.138,109.342,19,112.869z
		 M24,117.869c-3.757-17.281,35.344-28.035,49-15c7.701,19.421-13.675,28.419-32,25C36.488,121.359,25.845,126.357,24,117.869z"/>
	<path fill-rule="evenodd" clip-rule="evenodd" fill="#FFFFFF" d="M130,90.87c-1.02,1.314-0.98,3.687-2,5
		C124.291,95.125,126.796,90.472,130,90.87z"/>
	<path fill-rule="evenodd" clip-rule="evenodd" fill="#FFFFFF" d="M73,102.87c7.701,19.421-13.675,28.419-32,25
		c-4.512-6.51-15.155-1.512-17-10C20.243,100.588,59.344,89.834,73,102.87z M43,108.869c3.056,0.723,3.644-1.021,6-1
		c-0.667-3.332-2.571-5.429-7-5C41.868,105.334,41.849,107.688,43,108.869z M56,108.869c1.334,1.428,5.666,1.428,7,0
		c-0.623-3.043-2.221-5.111-6-5C57.826,106.695,55.591,106.461,56,108.869z M55,117.869c-3.622-3.764-6.222,1.766-11-2
		C42.595,125.336,53.252,123.143,55,117.869z"/>
	<path fill-rule="evenodd" clip-rule="evenodd" d="M42,102.87c4.429-0.43,6.333,1.667,7,5c-2.356-0.021-2.944,1.723-6,1
		C41.849,107.688,41.868,105.334,42,102.87z"/>
	<path fill-rule="evenodd" clip-rule="evenodd" d="M57,103.869c3.779-0.111,5.377,1.957,6,5c-1.334,1.428-5.666,1.428-7,0
		C55.591,106.461,57.826,106.695,57,103.869z"/>
	<path fill-rule="evenodd" clip-rule="evenodd" fill="#FFFFFF" d="M22,104.869c-0.138,3.529-2.862,4.473-3,8
		C14.842,111.396,18.312,104.66,22,104.869z"/>
	<path fill-rule="evenodd" clip-rule="evenodd" fill="#FFFFFF" d="M100,112.869c-0.775,8.893-2.935,16.398-11,18
		C91.995,124.742,92.252,110.955,100,112.869z"/>
	<path fill-rule="evenodd" clip-rule="evenodd" d="M44,115.869c4.778,3.766,7.378-1.764,11,2
		C53.252,123.143,42.595,125.336,44,115.869z"/>
	<path fill-rule="evenodd" clip-rule="evenodd" d="M165,136.869c2.325,1.008,3.225,3.443,3,7
		C163.111,145.408,163.268,138.896,165,136.869z"/>
	<path fill-rule="evenodd" clip-rule="evenodd" d="M156,146.869c3.677-0.344,3.023,3.645,4,6c-2.319,0.32-3.839-0.16-5-1
		C154.174,149.043,156.409,149.279,156,146.869z"/>
	<path fill-rule="evenodd" clip-rule="evenodd" d="M148,151.869c3.15-0.482,0.749,4.586,3,5c-0.847,2.932-3.22-0.598-5,0
		C145.846,154.383,147.571,153.773,148,151.869z"/>
	<path fill-rule="evenodd" clip-rule="evenodd" d="M112,158.869c5.753-0.752,9.525,0.475,11,4c-1.897,1.227-6.403,2.479-8,1
		c0.031,3.959-0.571,11.66-2,17c-4.715,0.564-7.577,1.439-12,0c-1.125-6.877,4.718-9.549,9-8
		C109.686,167.223,110.263,162.467,112,158.869z"/>
	<path fill-rule="evenodd" clip-rule="evenodd" d="M104,163.869c-1.455,1.879-6.545,0.121-8,2c1.734,2.934,2.357,6.977,2,12
		c-4.294,3.369-11.027,6.705-17,3c-1.178-8.055,5.446-11.793,12-9C85.928,161.383,99.003,154.754,104,163.869z"/>
	<path fill-rule="evenodd" clip-rule="evenodd" d="M134,159.869c3.638-0.637,3.929,2.07,4,5c-1.333,0-2.667,0-4,0
		C132.717,163.557,132.717,161.184,134,159.869z"/>
	<path fill-rule="evenodd" clip-rule="evenodd" fill="#FFFFFF" d="M201,71.87c-3.147,3.523,4.112,9.396,2,12
		c-8.162-0.171-5.4-11.267-6-19c6.812-4.188,16.479-5.521,22-11c0.514,8.283,4.023,18.466,4,24c-5.526,1.526-3.562-4.438-8-4
		c-3.633,0.904,2.084,5.645-1,6c-4.495-0.505-2.066-7.934-7-8C205.683,82.155,207.24,75.384,201,71.87z"/>
	<path fill-rule="evenodd" clip-rule="evenodd" fill="#FFFFFF" d="M97,131.869c3.464-4.201,6.35-8.982,7-16
		c3.91,1.225-0.48,7.043,1,12c4.958,0.545,4.335-8.424,9-5c-2.109,1.559-3.626,3.707-3,8c3.562,0.229,5.229-1.438,5-5
		c2.101,1.232,3.899,2.768,6,4c-4.95,5.051-11.253,8.748-14,16c-0.804-0.529-1.624-1.043-3-1c-0.708-3.707,1.708-4.291,1-8
		c-0.905-1.73-3.681-2.762-4,0C101.352,135.912,102.174,130.895,97,131.869z"/>
	<path fill-rule="evenodd" clip-rule="evenodd" d="M294,46.87c-3.81,12.19-13.314,18.686-25,23c0.838,2.162,2.589,3.411,2,7
		c6.162,0.104,17.75-7.442,20,1c-6.838,0.828-12.809,2.525-17,6c-0.066,5.094,2.65,12.646,2,15c-5.108,1.108-3.716-4.284-6-6
		c-5.661,5.68-5.521,22.47-11,25c-3.717-9.471,3.646-24.956,6-35c-9.735-3.031-25.655,5.837-35,0c9.287-2.957,25.543-7.654,34-5
		c0.723-3.056-1.022-3.644-1-6c-11.752,2.489-16.839-9.636-26-13c-0.841-2.492-1.309-5.357-1-9c2.395-1.272,3.682-3.651,8-3
		c3.01-16.692,36.785-26.645,43-6C289.713,42.49,292.635,43.902,294,46.87z M284,50.87c4.597-27.382-41.434-16.662-36,10
		C260.005,69.725,282.028,62.613,284,50.87z M241,56.87c0.367-1.728,3.023-6.182,1-7C240.048,50.85,236.968,55.808,241,56.87z"/>
	<path fill-rule="evenodd" clip-rule="evenodd" d="M125,49.87c0.96,5.96-1.855,8.145-4,11c9.206,6.081,9.711-8.998,17-5
		c-0.754,2.913-2.375,4.959-4,7c8.014,9.575,13.57-4.504,21-5c0.413,4.746-3.775,4.891-4,9c0.354,1.313,1.761,1.573,2,3
		c4.692-0.641,4.731-5.936,10-6c2.134-0.467,1.904,1.429,2,3c2.421-1.639,4.857-2.547,8-1c0.871,6.538-2.979,8.354-6,11
		c5.341,2.821,19.249-7.044,18,3c-8.787-2.757-16.858,3.206-28-1c-1.724-5.61-8.18-6.486-11-11c-5.448,2.827-13.945,2.721-16-3
		c-3.292,0.042-4.979,1.688-9,1c-2.375,0.625,0.155,6.155-2,7c6.271,3.063,14.916,3.751,15,13c9.373-1.225,17.091,4.041,14,12
		c2.989,3.678,10.105,3.228,11,9c0.23,3.898-2.148,5.186-3,8c0.905,1.762,3.681,1.652,4,4c-5.246,16.088-7.936,34.73-33,31
		c-3.651-0.016-4.491-2.842-7-4c-2.444,1.891-4.846,3.822-8,5c-11.633-2.699-19.674-8.992-27-16c-0.245-13.08,3.822-25.791,12-27
		c11.494-1.697,24.218,18.725,31,25c-1.76,2.574-4.349,4.318-6,7c0.647,3.688,3.422,5.246,7,6c2.802-0.98-1.452-2.668,1-4
		c4.775,3.635,15.143,6.592,18-1c-1.7-0.395-10.06,1.055-8-6c4.085-3.133,9.739,1.236,12-4c-1.411-1.564-7.609,1.732-8-3
		c0.616-7.598,11.738,0.631,12-8c-3.649-3.85-8.277,3.777-12,0c1.597-6.402,12.255-3.744,11-13c-6.778-10.406-16.913,8.83-23-1
		c0.38-6.953,10.817-3.849,13-9c0.604-6.271-3.725-7.608-10-7c-3.021,3.312-2.867,9.8-10,9c-4.117-5.417-0.184-11.342,5-13
		c-0.47-5.197-4.476-6.857-9-8c-5.287,1.38-4.893,8.44-12,8c-0.521-1.479-1.479-2.521-2-4c0.184-5.483,5.568-5.766,9-8c0-3,0-6,0-9
		c-5.414,1.098-11.36,1.971-13-3c1.45-2.964,6.001-6.759,10-4C112.597,51.043,119.597,44.678,125,49.87z M118,58.87
		c1.157-2.509,3.984-3.349,4-7C117.452,50.8,114.477,58.031,118,58.87z M167,73.87c0.889-2.111,3.044-2.956,3-6
		C167.074,67.356,164.695,72.459,167,73.87z M159,74.87c2.484,0.702,4.235-4.275,2-5C160.574,71.777,158.143,71.679,159,74.87z
		 M128,95.87c1.02-1.313,0.98-3.686,2-5C126.796,90.472,124.291,95.125,128,95.87z M89,130.869c8.065-1.602,10.225-9.107,11-18
		C92.252,110.955,91.995,124.742,89,130.869z M102,136.869c0.319-2.762,3.095-1.73,4,0c0.708,3.709-1.708,4.293-1,8
		c1.376-0.043,2.196,0.471,3,1c2.747-7.252,9.05-10.949,14-16c-2.101-1.232-3.899-2.768-6-4c0.229,3.562-1.438,5.229-5,5
		c-0.626-4.293,0.891-6.441,3-8c-4.665-3.424-4.042,5.545-9,5c-1.48-4.957,2.91-10.775-1-12c-0.65,7.018-3.536,11.799-7,16
		C102.174,130.895,101.352,135.912,102,136.869z"/>
	<path fill-rule="evenodd" clip-rule="evenodd" d="M232,76.87c-13.85,10.498-47.568,21.79-40-13c9.363-5.687,22.525-12.74,33-14
		C233.099,53.104,230.419,67.117,232,76.87z M207,71.87c4.934,0.066,2.505,7.495,7,8c3.084-0.355-2.633-5.096,1-6
		c4.438-0.438,2.474,5.526,8,4c0.023-5.534-3.486-15.717-4-24c-5.521,5.479-15.188,6.812-22,11c0.6,7.733-2.162,18.829,6,19
		c2.112-2.604-5.147-8.477-2-12C207.24,75.384,205.683,82.155,207,71.87z M228,73.87c-0.648-6.351-0.494-13.506-3-18
		C223.405,61.834,224.111,70.47,228,73.87z"/>
</g>
</svg>
