<?xml version="1.0" encoding="utf-8"?>
<!-- Generator: Adobe Illustrator 15.1.0, SVG Export Plug-In . SVG Version: 6.00 Build 0)  -->
<!DOCTYPE svg PUBLIC "-//W3C//DTD SVG 1.1//EN" "http://www.w3.org/Graphics/SVG/1.1/DTD/svg11.dtd">
<svg version="1.1" id="Layer_1" xmlns="http://www.w3.org/2000/svg" xmlns:xlink="http://www.w3.org/1999/xlink" x="0px" y="0px"
	 width="75.614px" height="75.362px" viewBox="0 0 75.614 75.362" enable-background="new 0 0 75.614 75.362" xml:space="preserve">
<rect x="0.254" fill="#2AA8E0" width="75.36" height="75.362"/>
<path fill="#FFFFFF" d="M63.054,22.1c-1.85,0.82-3.836,1.375-5.92,1.623c2.127-1.276,3.764-3.294,4.531-5.702
	c-1.988,1.181-4.193,2.04-6.543,2.502c-1.881-2.005-4.561-3.256-7.525-3.256c-5.692,0-10.307,4.616-10.307,10.307
	c0,0.81,0.091,1.594,0.267,2.348c-8.566-0.428-16.16-4.531-21.245-10.77c-0.886,1.525-1.395,3.294-1.395,5.184
	c0,3.575,1.819,6.732,4.583,8.579c-1.688-0.052-3.277-0.519-4.667-1.29v0.13c0,4.993,3.554,9.16,8.267,10.107
	c-0.864,0.234-1.777,0.363-2.716,0.363c-0.663,0-1.311-0.066-1.938-0.188c1.311,4.096,5.117,7.074,9.627,7.16
	c-3.525,2.764-7.969,4.412-12.802,4.412c-0.831,0-1.65-0.051-2.457-0.145c4.561,2.922,9.979,4.629,15.802,4.629
	c18.957,0,29.324-15.703,29.324-29.326c0-0.445-0.012-0.89-0.027-1.335C59.923,25.983,61.669,24.167,63.054,22.1z"/>
</svg>
